<?xml version="1.0" standalone="no"?>
<!DOCTYPE svg PUBLIC "-//W3C//DTD SVG 20010904//EN"
 "http://www.w3.org/TR/2001/REC-SVG-20010904/DTD/svg10.dtd">
<svg version="1.0" xmlns="http://www.w3.org/2000/svg"
 width="348.000000pt" height="348.000000pt" viewBox="0 0 348.000000 348.000000"
 preserveAspectRatio="xMidYMid meet">
<metadata>
Created by potrace 1.14, written by Peter Selinger 2001-2017
</metadata>
<g transform="translate(0.000000,348.000000) scale(0.100000,-0.100000)"
fill="#000000" stroke="none">
<path d="M1817 3196 c-4 -10 -7 -53 -7 -96 0 -90 -3 -93 -114 -146 -32 -15
-60 -34 -63 -41 -3 -8 -12 -12 -19 -9 -16 6 -20 -39 -4 -49 6 -3 10 -14 9 -23
0 -11 -3 -12 -6 -4 -2 6 -11 12 -18 12 -16 0 -25 33 -14 51 5 8 8 25 8 39 -1
17 -3 19 -6 8 -7 -27 -27 -22 -46 12 -10 16 -28 35 -40 41 -16 9 -14 4 9 -20
38 -38 50 -81 27 -98 -13 -10 -21 -8 -43 15 -15 15 -39 44 -55 65 -22 29 -24
37 -11 37 9 0 16 4 16 10 0 5 7 6 17 3 11 -4 14 -3 9 5 -4 7 -20 9 -39 6 -18
-3 -28 -2 -22 3 17 14 16 50 -3 57 -21 7 -55 28 -63 39 -3 5 -18 5 -32 1 -18
-4 -27 -2 -27 6 0 7 -13 4 -34 -9 -34 -22 -82 -29 -71 -11 3 6 1 10 -4 10 -16
0 -13 -30 2 -36 9 -3 13 -18 11 -42 -2 -31 -5 -37 -23 -35 -12 2 -20 -1 -20
-5 3 -19 -2 -22 -15 -10 -16 16 -18 68 -4 86 16 18 2 15 -35 -10 -17 -12 -51
-45 -73 -73 l-41 -52 43 16 c23 8 42 20 41 25 -4 21 42 18 55 -3 15 -25 35
-27 60 -4 16 14 18 14 18 1 0 -17 -27 -33 -49 -29 -9 2 -12 -3 -8 -13 7 -19
-4 -21 -21 -4 -9 9 -12 8 -12 -6 0 -15 6 -17 34 -12 18 4 43 3 55 -2 20 -7 21
-10 8 -20 -12 -10 -16 -10 -20 1 -4 11 -16 12 -51 7 -26 -4 -50 -10 -54 -14
-4 -4 5 -5 21 -1 35 9 77 -2 77 -20 0 -9 6 -12 15 -9 8 4 21 2 28 -4 15 -12
67 -22 67 -12 0 4 18 6 40 5 32 -2 40 1 40 15 0 10 9 29 21 44 11 14 21 35 22
46 1 11 5 20 9 20 7 0 10 -9 7 -26 0 -4 3 -10 8 -13 20 -14 43 -57 43 -82 0
-24 -37 -66 -107 -120 -7 -5 -10 -22 -8 -39 2 -16 0 -29 -3 -27 -4 1 -18 -6
-32 -16 -13 -9 -19 -17 -12 -17 20 0 13 -17 -15 -36 -28 -18 -138 -31 -128
-14 3 5 -4 11 -15 15 -11 4 -18 10 -15 15 3 4 -2 10 -10 14 -21 8 -19 27 3 19
12 -4 10 0 -5 11 -18 13 -21 23 -16 47 6 29 5 31 -15 20 -25 -13 -32 -14 -32
-2 0 5 16 12 35 15 35 7 65 29 65 49 0 8 -4 7 -12 -1 -19 -19 -32 -14 -17 6
13 16 12 16 -6 1 -30 -24 -79 -41 -107 -37 -33 5 -60 27 -54 45 5 11 -2 12
-29 7 -66 -12 -70 -2 -29 73 20 37 30 62 22 57 -7 -6 -21 -14 -30 -17 -13 -5
-16 -1 -12 16 3 12 6 29 8 37 1 8 18 25 36 38 18 12 29 22 24 22 -12 0 -51
-26 -84 -55 -14 -12 -38 -25 -53 -29 -34 -8 -77 -51 -77 -77 0 -9 -31 -49 -69
-88 -102 -102 -103 -105 -108 -226 -2 -63 1 -113 7 -125 13 -25 11 -25 -72 2
l-67 22 -45 -32 c-24 -18 -49 -32 -54 -32 -14 0 -72 -56 -72 -70 0 -6 5 -8 11
-4 8 5 8 1 0 -14 -6 -12 -16 -24 -21 -27 -6 -4 -8 -16 -4 -27 4 -15 3 -18 -6
-13 -9 5 -11 4 -6 -4 10 -16 36 5 36 29 0 9 17 33 38 53 20 20 47 50 59 65 23
31 91 56 113 42 9 -5 9 -9 1 -14 -6 -4 -15 -4 -21 -1 -32 20 -160 -110 -160
-163 0 -22 -23 -46 -33 -35 -13 12 -7 -13 7 -33 17 -24 10 -64 -10 -64 -8 0
-19 10 -25 22 -8 20 -9 19 -3 -7 5 -29 5 -29 -14 -12 -19 17 -20 17 -25 -4 -7
-28 7 -65 29 -73 22 -8 46 12 39 34 -9 27 22 33 39 8 17 -24 3 -53 -21 -44 -7
3 -13 -1 -13 -8 0 -8 5 -16 10 -18 7 -2 4 -11 -5 -23 -16 -20 -16 -20 -10 2 5
18 2 20 -14 16 -25 -6 -91 33 -91 54 0 23 -11 9 -15 -19 -1 -12 -6 -32 -10
-43 -4 -13 -1 -12 9 5 l15 25 2 -25 c1 -14 1 -32 0 -40 -1 -8 5 -4 13 10 11
19 16 21 19 10 16 -46 15 -46 16 -28 1 14 9 16 56 11 51 -5 55 -4 64 19 5 13
7 55 5 94 l-5 70 41 10 40 11 0 -52 c0 -44 5 -57 35 -92 19 -23 38 -55 41 -72
4 -17 10 -34 15 -37 5 -3 6 3 3 13 -5 17 -5 17 6 0 6 -9 9 -21 5 -26 -3 -5 13
-25 35 -44 42 -36 49 -47 26 -47 -8 0 -12 -9 -11 -25 2 -14 -1 -23 -6 -19 -12
7 -68 -28 -99 -63 l-25 -28 25 21 c34 30 82 51 101 47 9 -2 26 8 38 23 11 15
21 23 21 18 0 -4 -11 -20 -25 -34 -30 -32 -50 -90 -31 -90 13 0 36 41 36 64 0
7 8 21 19 30 32 29 32 -5 0 -44 -16 -19 -29 -37 -29 -41 0 -15 31 -2 46 19 8
12 22 22 30 22 18 0 18 -5 -2 -35 -14 -21 -24 -25 -70 -25 -30 0 -54 5 -54 10
0 21 -26 9 -38 -17 -19 -46 -59 -107 -71 -111 -33 -11 -53 47 -30 90 7 13 7
18 1 14 -15 -9 -35 -74 -28 -91 3 -10 -1 -15 -12 -15 -10 0 -23 -5 -28 -10
-17 -17 -37 16 -36 59 1 32 -4 43 -40 77 -24 21 -35 30 -25 18 21 -26 21 -33
0 -33 -32 -1 -53 -4 -53 -8 0 -15 35 -81 56 -106 43 -52 63 -59 92 -30 19 19
31 23 51 18 30 -8 31 -8 54 -6 9 0 17 7 17 15 0 7 7 20 16 27 15 12 16 11 9
-10 -6 -21 -5 -22 17 -16 35 10 68 27 68 37 0 14 -20 9 -26 -7 -8 -19 -40 -20
-47 -1 -15 38 140 57 216 27 19 -7 41 -8 70 -1 23 5 53 9 67 9 23 0 23 -1 5
-9 -11 -5 -46 -16 -77 -25 -32 -8 -58 -20 -58 -25 0 -6 -11 -10 -24 -10 -32 0
-106 -27 -127 -46 -10 -9 -24 -14 -31 -11 -7 2 -21 0 -30 -5 -11 -5 -18 -5
-18 1 0 9 30 25 43 23 4 -1 7 2 7 8 0 5 7 10 16 10 8 0 12 5 9 10 -6 10 9 19
40 24 9 1 20 7 23 12 4 6 26 10 50 9 50 -1 65 10 24 18 -32 6 -82 -2 -82 -13
0 -5 -13 -11 -30 -15 -16 -4 -30 -10 -30 -15 0 -4 -34 -20 -75 -35 -69 -26
-102 -44 -55 -32 24 6 25 -1 5 -31 -11 -14 -23 -20 -38 -18 -12 3 -25 5 -29 5
-16 2 -7 20 13 26 11 4 18 9 15 12 -6 6 -243 -109 -271 -132 -11 -8 35 11 101
44 120 59 144 63 144 25 0 -32 43 -25 133 21 51 26 97 53 103 61 11 14 64 37
71 31 2 -3 -7 -11 -21 -20 -13 -9 -36 -28 -51 -42 -31 -28 -118 -78 -245 -142
-47 -23 -80 -42 -74 -43 5 0 64 27 129 59 98 49 123 58 143 50 26 -10 57 5 46
22 -3 5 1 7 8 4 7 -3 29 9 48 26 l35 31 -43 -22 c-24 -12 -48 -20 -54 -18 -12
4 68 59 122 83 19 8 46 24 60 34 14 11 45 21 70 24 l45 6 -35 -18 c-19 -10
-52 -29 -73 -44 -21 -14 -46 -29 -55 -32 -9 -3 -28 -21 -42 -40 -43 -59 -212
-172 -339 -226 -36 -16 -59 -29 -50 -29 22 0 169 73 247 123 54 34 123 66 162
73 3 0 22 8 42 17 43 20 74 22 84 6 17 -28 100 -69 138 -69 63 0 84 -9 79 -31
-3 -10 -2 -27 2 -36 7 -17 8 -16 15 2 6 14 9 3 9 -36 1 -31 4 -78 7 -105 5
-46 4 -48 -10 -30 -10 12 -16 41 -17 70 -1 48 -2 49 -9 18 -15 -66 24 -137 71
-130 17 2 28 15 39 46 16 41 15 47 -8 120 -45 142 -44 135 -22 183 11 24 20
58 20 75 0 31 -38 170 -45 162 -1 -1 -5 -36 -7 -76 -6 -82 -12 -94 -33 -66
-12 17 -12 20 2 32 15 11 14 12 -6 12 -20 0 -21 2 -11 15 10 12 10 18 0 30 -8
9 -10 27 -6 47 15 80 20 116 19 153 -1 22 -2 56 -3 75 -1 43 -19 102 -29 96
-4 -3 -25 3 -46 13 -22 10 -53 16 -70 14 -22 -2 -26 -1 -15 6 12 8 12 13 0 36
-12 22 -18 25 -44 19 -49 -10 -54 -18 -16 -24 32 -5 35 -7 31 -35 -4 -38 -19
-47 -45 -29 -23 16 -66 19 -66 4 0 -6 -5 -9 -12 -8 -25 6 -38 -125 -16 -165
10 -19 9 -20 -4 -9 -38 31 -26 192 14 192 16 0 23 12 16 24 -2 2 4 12 14 22
10 12 14 29 11 45 l-5 27 -34 -37 c-18 -20 -34 -30 -34 -22 0 22 -30 -8 -30
-31 0 -11 -4 -16 -11 -12 -8 4 -9 0 -4 -15 3 -11 4 -30 0 -40 -6 -19 -27 -21
-115 -11 -3 0 1 4 9 9 12 8 13 12 1 26 -10 13 -15 13 -21 3 -7 -10 -9 -9 -9 5
0 21 23 22 40 2 16 -19 26 -19 34 1 5 14 4 15 -8 5 -11 -9 -15 -7 -19 11 -7
27 -2 34 15 22 21 -15 73 -11 73 6 0 8 5 20 12 25 6 6 15 27 19 48 l6 37 -47
-46 c-46 -44 -47 -45 -41 -17 l6 28 -16 -29 -16 -28 -33 36 c-37 41 -60 89
-52 110 10 26 59 51 99 50 41 -2 47 6 22 27 -13 10 -20 10 -44 -4 -19 -11 -31
-14 -35 -7 -4 6 9 17 27 25 l33 16 -35 -7 c-19 -3 -32 -3 -27 2 9 10 -32 54
-51 54 -30 0 10 30 49 36 42 7 46 13 27 33 -11 10 -10 11 5 6 9 -4 17 -13 17
-20 0 -8 8 -16 18 -19 23 -8 55 -73 39 -80 -7 -2 -2 -5 11 -5 19 -1 22 -5 17
-21 -4 -14 -2 -20 9 -20 24 0 23 32 -1 69 -28 41 -29 51 -4 44 13 -3 17 -11
14 -24 -4 -13 0 -19 11 -19 12 0 16 10 16 39 0 38 -1 39 -28 35 -19 -3 -34 1
-42 11 -12 14 -10 14 14 5 24 -9 31 -6 57 19 16 16 29 27 29 23 0 -10 51 42
62 63 5 11 -7 3 -26 -17 -20 -21 -36 -32 -36 -25 0 6 -10 0 -21 -15 -27 -36
-44 -35 -58 2 -12 36 -21 40 -15 6 3 -21 1 -23 -18 -18 -16 4 -19 2 -13 -9 4
-8 -4 -1 -17 15 -16 19 -23 37 -20 50 5 20 5 20 12 0 4 -10 6 -22 3 -26 -2 -5
0 -8 6 -8 13 0 21 27 19 68 -3 78 103 117 197 73 25 -12 45 -26 45 -32 0 -6 7
-3 16 5 8 9 19 16 22 16 4 0 19 11 33 24 25 23 26 23 38 5 10 -17 8 -21 -14
-29 -15 -6 -30 -10 -34 -10 -4 0 -17 -8 -29 -18 -14 -13 -18 -22 -11 -34 10
-19 -15 -47 -26 -28 -3 5 -2 10 4 10 6 0 8 7 4 16 -4 10 -8 12 -12 5 -4 -7
-13 -3 -24 9 -21 25 -21 30 1 31 9 1 1 5 -18 9 -36 9 -89 -12 -91 -35 0 -5 -4
0 -10 13 -5 13 -13 20 -19 17 -5 -3 -20 -8 -31 -10 -28 -6 -29 -7 -22 -33 3
-13 13 -22 25 -22 10 0 16 -4 13 -10 -14 -23 12 -7 52 32 36 35 44 39 58 28 8
-7 13 -15 11 -17 -3 -3 13 -23 35 -44 31 -30 39 -44 34 -60 -5 -16 -4 -19 6
-14 8 6 11 4 7 -6 -3 -8 -11 -31 -19 -51 -19 -54 -45 -51 -44 5 0 24 6 51 14
61 8 9 11 19 8 22 -8 8 -35 -37 -41 -68 -3 -17 0 -28 7 -28 8 0 8 -3 0 -11 -7
-7 -23 -9 -39 -5 l-27 7 24 26 24 26 -33 -19 c-25 -15 -32 -24 -27 -39 4 -11
13 -46 22 -77 8 -32 20 -58 25 -58 13 0 79 -49 104 -77 l21 -25 13 31 c7 17
16 31 21 31 5 0 1 -17 -10 -38 -14 -28 -17 -42 -9 -56 5 -9 7 -20 4 -23 -3 -3
11 -14 32 -24 43 -22 53 -24 27 -5 -17 12 -32 52 -16 42 4 -3 15 4 24 15 12
13 13 19 4 20 -13 0 31 22 48 23 6 1 10 8 10 16 1 8 7 14 14 12 8 -2 11 3 8
11 -3 8 3 29 14 46 l19 32 30 -23 c17 -12 30 -31 30 -42 1 -12 9 -44 18 -72
15 -44 16 -55 5 -70 -7 -10 -13 -31 -13 -46 0 -30 -22 -60 -53 -71 -10 -4 -16
-11 -13 -16 3 -5 -4 -11 -16 -14 -21 -6 -21 -7 -5 -25 16 -17 16 -20 2 -25
-17 -7 -19 -16 -5 -37 9 -13 12 -13 24 3 19 25 57 18 73 -13 7 -14 17 -25 23
-25 14 0 80 -84 80 -101 0 -7 14 -24 31 -36 17 -13 42 -42 56 -66 23 -39 57
-72 75 -72 15 0 8 55 -11 85 -26 44 -39 91 -44 170 -4 54 -2 64 5 45 6 -14 12
-47 14 -74 7 -95 45 -179 72 -162 15 9 16 55 2 90 -8 23 -6 28 18 40 31 16 52
77 52 153 0 56 6 52 55 -41 30 -56 35 -76 30 -103 -7 -39 12 -78 43 -87 30
-10 70 -123 56 -160 -4 -11 -17 -9 -64 11 -34 13 -89 26 -127 28 -63 4 -65 4
-23 -5 45 -10 173 -60 167 -66 -2 -2 -30 5 -63 15 -116 35 -234 37 -234 5 0
-11 -4 -12 -19 -4 -29 15 -53 2 -51 -29 3 -40 1 -44 -15 -31 -33 28 -10 -36
29 -78 20 -22 21 -33 19 -193 l-2 -169 262 0 c239 0 266 -2 298 -19 40 -21
119 -19 154 5 14 10 58 14 162 14 l143 0 0 200 c0 110 4 200 8 200 4 0 26 23
47 52 38 49 40 50 46 27 5 -16 7 -18 8 -6 1 9 6 17 11 17 14 0 13 -37 -1 -42
-9 -3 -9 -10 0 -27 17 -31 52 -24 70 13 12 25 12 35 0 65 -7 20 -16 56 -20 81
l-8 45 4 -50 c2 -27 7 -61 11 -75 6 -24 6 -24 -11 -8 -14 13 -18 34 -19 85 -1
37 -7 79 -15 92 -13 23 -12 23 14 17 23 -6 34 -1 59 23 29 28 33 30 72 20 36
-9 44 -17 65 -60 12 -27 29 -55 36 -61 7 -6 13 -28 13 -49 0 -30 6 -42 30 -59
16 -11 42 -25 59 -31 16 -6 32 -17 35 -25 4 -9 2 -12 -5 -8 -7 4 -7 -1 1 -16
7 -13 17 -19 26 -16 8 3 12 2 9 -3 -3 -5 5 -13 17 -16 29 -9 79 -55 72 -67 -8
-12 28 -108 38 -102 4 3 8 1 8 -5 0 -5 3 -17 7 -27 5 -13 3 -15 -7 -9 -9 5
-11 4 -6 -3 4 -7 15 -16 25 -22 17 -9 19 -6 17 33 -3 41 -12 71 -41 132 -8 17
-17 43 -20 58 -3 15 -9 25 -14 22 -5 -2 -12 11 -15 30 -4 19 -12 35 -18 35 -6
0 -8 11 -5 29 4 21 1 34 -13 46 -11 10 -20 29 -20 42 0 25 -1 26 -67 43 -36 9
-43 15 -43 36 0 16 -4 23 -12 18 -7 -5 -8 -3 -2 7 14 24 4 67 -46 193 -27 66
-48 122 -46 123 1 1 18 -26 38 -60 41 -72 73 -154 83 -214 6 -36 10 -43 30
-43 31 0 106 58 124 95 10 20 14 59 12 117 -2 114 3 136 34 131 12 -3 31 0 42
5 26 14 47 0 39 -26 -10 -32 17 -84 77 -150 31 -33 63 -74 72 -91 16 -32 29
-39 41 -20 3 6 37 31 74 55 37 24 71 51 74 60 4 9 -1 42 -9 72 -9 30 -18 79
-20 109 -4 81 -20 93 -120 93 -44 0 -86 5 -91 10 -7 7 -8 29 -2 63 13 80 4
100 -73 169 -40 36 -68 67 -65 75 3 8 -2 13 -12 13 -27 0 -45 -17 -39 -34 9
-23 -11 -62 -38 -74 -19 -9 -25 -8 -29 5 -8 19 20 53 43 53 11 0 12 3 4 8 -9
5 -9 19 -3 47 13 54 13 53 -14 50 -20 -3 -23 1 -19 19 5 20 5 20 -9 2 -14 -18
-15 -17 -10 12 4 30 2 32 -29 33 -28 1 -29 3 -9 6 42 8 42 18 5 72 -33 47 -36
58 -32 104 3 45 7 52 23 49 10 -2 45 -6 77 -9 67 -6 81 2 110 66 26 60 17 120
-23 150 -30 22 -43 14 -15 -9 8 -7 15 -17 15 -23 0 -5 -9 2 -20 16 -11 14 -20
39 -20 57 0 20 -4 29 -11 24 -7 -4 -9 0 -5 13 4 13 -4 28 -28 51 -36 34 -81
47 -55 16 11 -14 10 -18 -6 -30 -10 -8 -22 -14 -26 -14 -4 0 -9 -9 -12 -20 -7
-25 -29 -26 -51 -1 -18 19 -14 47 5 36 5 -4 17 -1 26 4 16 9 16 10 1 11 -9 0
-19 6 -21 13 -4 9 -6 9 -6 0 -1 -9 -8 -8 -28 3 -32 16 -63 18 -63 5 0 -5 14
-12 30 -16 25 -6 29 -9 19 -21 -6 -8 -19 -15 -28 -15 -9 -1 0 -4 19 -8 26 -4
35 -11 35 -26 0 -11 3 -25 7 -31 4 -7 1 -17 -7 -24 -12 -10 -16 -9 -20 2 -3 8
-5 20 -3 27 2 7 -12 19 -31 27 -26 11 -31 11 -23 1 14 -16 -3 -37 -29 -37 -10
0 -21 -4 -24 -10 -8 -13 -25 -13 -25 0 0 5 4 9 9 7 5 -1 8 1 8 4 -1 4 7 17 18
30 l20 24 -21 -17 c-29 -25 -47 -23 -38 5 3 12 13 30 22 39 20 24 3 44 -45 51
-20 4 -48 17 -62 31 -14 13 -39 27 -56 31 -25 5 -27 4 -12 -5 18 -11 18 -13 0
-33 -16 -20 -16 -20 0 -8 22 18 27 13 20 -23 -3 -16 -14 -31 -24 -33 -22 -6
-34 -33 -14 -33 8 0 15 5 15 11 0 5 5 7 10 4 6 -4 4 -12 -5 -21 -8 -9 -15 -20
-15 -26 0 -6 -9 -8 -20 -5 -11 3 -20 1 -20 -4 0 -5 5 -9 10 -9 6 0 10 -5 10
-11 0 -27 -25 1 -26 29 -1 40 -14 56 -14 18 0 -23 -3 -26 -25 -22 -14 3 -25 0
-25 -5 0 -5 7 -9 15 -9 8 0 15 -5 15 -11 0 -6 -7 -8 -16 -5 -9 3 -20 6 -26 6
-6 0 -8 13 -4 33 5 26 4 29 -5 14 -6 -11 -9 -32 -7 -48 3 -16 1 -29 -4 -29 -5
0 -6 -4 -3 -10 3 -5 1 -18 -4 -29 -13 -24 -51 -17 -51 10 0 27 -18 33 -46 14
-13 -9 -29 -13 -35 -9 -7 4 -9 0 -5 -13 4 -12 -1 -28 -13 -42 l-20 -23 -26 26
c-14 14 -25 31 -25 38 0 9 -3 9 -12 0 -10 -10 -7 -18 15 -38 28 -26 33 -39 18
-48 -14 -9 -63 13 -56 24 4 6 4 28 0 50 -6 34 -11 40 -48 53 -23 8 -52 12 -64
11 -24 -4 -32 11 -10 19 7 3 5 6 -5 6 -10 1 -18 5 -18 11 0 5 13 7 30 4 40 -9
38 -2 -10 30 l-40 26 0 77 c0 42 -3 74 -6 70 -3 -3 -16 -2 -28 3 -13 5 -29 4
-40 -2 -13 -7 -21 -5 -30 7 -12 17 -13 17 -19 1z m55 -90 c-2 -11 4 -16 19
-16 14 0 19 5 16 15 -4 8 -2 17 3 20 6 4 10 -7 10 -22 0 -26 -3 -29 -36 -30
-37 -1 -51 14 -40 43 8 20 32 12 28 -10z m813 -37 c12 -19 -3 -22 -27 -5 l-22
16 21 0 c12 0 25 -5 28 -11z m-1432 -29 c3 -11 1 -18 -4 -14 -5 3 -9 12 -9 20
0 20 7 17 13 -6z m1757 -30 c-1 -12 -4 -11 -15 4 -8 10 -12 23 -8 29 7 11 23
-12 23 -33z m-343 24 c-3 -3 -12 -4 -19 -1 -8 3 -5 6 6 6 11 1 17 -2 13 -5z
m309 -6 c4 -6 2 -14 -4 -16 -7 -2 -12 -8 -12 -13 0 -6 4 -7 10 -4 6 3 7 -1 4
-9 -3 -9 -10 -16 -16 -16 -5 0 -6 -5 -2 -11 5 -8 1 -8 -14 0 -17 9 -19 8 -15
-8 6 -25 -8 -32 -30 -16 -18 13 -18 14 0 42 19 29 53 62 65 63 4 0 10 -5 14
-12z m-1881 -18 c3 -5 0 -7 -8 -4 -8 3 -18 1 -22 -5 -3 -6 -13 -11 -22 -11
-13 0 -13 3 -3 15 14 17 46 20 55 5z m850 0 c3 -5 1 -10 -4 -10 -6 0 -11 5
-11 10 0 6 2 10 4 10 3 0 8 -4 11 -10z m923 -39 c3 -8 -1 -12 -9 -9 -7 2 -15
10 -17 17 -3 8 1 12 9 9 7 -2 15 -10 17 -17z m-338 -5 c0 -2 -7 -6 -15 -10 -8
-3 -15 -1 -15 4 0 6 7 10 15 10 8 0 15 -2 15 -4z m-1235 -16 c8 -13 -15 -13
-35 0 -12 8 -11 10 7 10 12 0 25 -4 28 -10z m545 0 c0 -5 14 -10 30 -10 17 0
30 -4 30 -10 0 -5 -4 -10 -8 -10 -5 0 -16 -6 -26 -13 -15 -11 -16 -18 -8 -34
16 -28 4 -35 -28 -17 -24 15 -29 15 -58 0 -17 -9 -34 -16 -37 -16 -10 0 0 35
13 45 11 9 9 14 -7 29 -12 11 -21 14 -21 8 0 -7 -5 -12 -11 -12 -8 0 -8 5 1
15 7 8 23 13 35 11 12 -2 33 2 46 9 30 16 49 18 49 5z m-589 -10 c20 -11 27
-40 9 -40 -5 0 -10 4 -10 9 0 5 -7 17 -16 25 -18 18 -11 21 17 6z m1739 0 c0
-5 0 -12 0 -15 0 -3 -3 -5 -7 -4 -3 0 -10 -6 -15 -15 -5 -9 -16 -16 -23 -16
-22 0 -18 31 5 37 11 3 20 9 20 14 0 5 5 9 10 9 6 0 10 -4 10 -10z m-484 -17
c19 -25 17 -33 -6 -33 -10 0 -29 -10 -40 -22 -21 -23 -21 -23 -36 -3 -8 11
-18 18 -21 15 -3 -3 -7 7 -7 22 -2 25 1 27 30 22 18 -3 35 0 39 6 9 15 26 12
41 -7z m364 3 c0 -8 -4 -17 -9 -21 -12 -7 -24 12 -16 25 9 15 25 12 25 -4z
m-2045 -13 c-4 -10 -11 -34 -14 -53 l-6 -35 -18 25 c-23 32 -22 46 5 64 29 21
42 20 33 -1z m495 -3 c8 -5 11 -10 5 -10 -5 0 -17 5 -25 10 -8 5 -10 10 -5 10
6 0 17 -5 25 -10z m1519 -14 c16 -19 -9 -28 -32 -11 -14 10 -15 14 -5 18 21 9
25 8 37 -7z m-1496 -11 c-3 -9 -8 -14 -10 -11 -3 3 -2 9 2 15 9 16 15 13 8 -4z
m1217 -5 c0 -21 -24 -28 -35 -10 -8 14 3 30 21 30 8 0 14 -9 14 -20z m55 0 c0
-8 -10 -16 -22 -18 -22 -3 -32 16 -16 32 12 11 38 2 38 -14z m-1312 3 c-7 -2
-19 -2 -25 0 -7 3 -2 5 12 5 14 0 19 -2 13 -5z m1199 -28 c-2 -10 1 -14 7 -10
6 3 11 0 11 -8 0 -8 -7 -17 -15 -21 -8 -3 -15 -1 -15 5 0 6 -7 9 -15 5 -18 -6
-18 -5 -5 29 11 29 37 29 32 0z m-1192 3 c0 -11 -48 -10 -54 1 -3 4 8 8 24 7
17 -1 30 -4 30 -8z m1034 -13 c-7 -16 -24 -21 -24 -6 0 8 7 13 27 20 1 1 0 -6
-3 -14z m516 -6 c0 -5 -7 -9 -15 -9 -8 0 -15 7 -15 15 0 9 6 12 15 9 8 -4 15
-10 15 -15z m-1259 -36 c13 -15 11 -16 -15 -9 l-30 7 25 -20 c17 -14 19 -20 9
-21 -13 0 -13 -1 0 -10 12 -8 10 -10 -10 -11 -23 0 -23 -1 -5 -8 11 -5 20 -13
20 -20 0 -6 5 -10 10 -8 6 1 9 17 7 35 -3 33 6 40 25 21 7 -7 8 -24 2 -47 -9
-39 0 -57 32 -67 12 -4 19 -16 19 -32 0 -20 -4 -24 -17 -18 -10 3 -37 12 -61
18 -28 7 -41 16 -37 24 3 7 8 20 12 30 3 9 2 14 -3 11 -5 -3 -25 7 -44 24 -19
16 -26 26 -16 22 15 -6 18 -4 13 9 -5 12 -1 17 13 17 26 0 26 17 -1 25 -15 5
-17 10 -9 20 8 10 7 14 -2 18 -7 3 1 6 18 6 18 1 37 -6 45 -16z m594 -23 c-5
-8 -11 -8 -17 -2 -6 6 -7 16 -3 22 5 8 11 8 17 2 6 -6 7 -16 3 -22z m-1435 0
c0 -17 -2 -19 -14 -8 -10 9 -11 15 -2 20 16 11 16 10 16 -12z m1550 16 c0 -3
-4 -8 -10 -11 -5 -3 -10 -1 -10 4 0 6 5 11 10 11 6 0 10 -2 10 -4z m-853 -63
c-9 -15 -28 -39 -43 -53 -15 -14 -23 -18 -18 -10 4 8 7 24 6 36 -4 25 61 94
66 70 2 -8 -3 -27 -11 -43z m633 37 c0 -5 -2 -10 -4 -10 -3 0 -8 5 -11 10 -3
6 -1 10 4 10 6 0 11 -4 11 -10z m-1272 -27 c-4 -22 -22 -20 -26 1 -2 10 3 16
13 16 10 0 15 -7 13 -17z m937 -10 c0 -16 4 -54 8 -85 6 -52 5 -58 -11 -58
-15 0 -20 13 -30 76 -13 81 -11 94 16 94 12 0 17 -8 17 -27z m133 21 c12 -4
22 -12 22 -18 0 -7 -10 -12 -22 -12 -18 1 -24 -5 -26 -27 -5 -40 -22 -22 -22
24 0 40 5 44 48 33z m602 -86 c0 -45 -2 -49 -37 -67 -34 -18 -35 -20 -14 -21
14 0 35 -10 48 -22 28 -26 30 -43 5 -29 -14 7 -19 6 -19 -4 0 -17 51 -40 67
-30 5 3 28 8 49 10 33 3 40 0 50 -22 10 -21 9 -29 -6 -46 -10 -11 -12 -17 -5
-13 6 4 12 2 12 -3 0 -6 14 -11 32 -11 27 0 29 -2 16 -12 -8 -7 -22 -24 -32
-38 -14 -22 -16 -23 -17 -5 0 11 -3 14 -6 8 -2 -7 -18 -13 -34 -13 -18 0 -29
-5 -29 -14 0 -19 21 -26 42 -14 13 6 16 5 12 -6 -7 -17 -34 -30 -34 -15 0 6
-6 6 -19 0 -23 -13 -31 -5 -30 28 0 24 1 24 9 6 8 -19 9 -19 9 2 1 12 -4 25
-10 28 -12 8 -9 67 5 77 5 3 16 0 23 -8 20 -19 39 -18 23 1 -11 13 -10 14 6 8
16 -6 17 -5 4 9 -8 9 -18 14 -22 11 -5 -2 -8 3 -8 12 0 12 -5 15 -16 11 -9 -3
-20 -6 -25 -6 -5 0 -9 -7 -9 -15 0 -8 -4 -15 -10 -15 -15 0 -12 -18 4 -22 12
-2 12 -9 1 -40 -7 -21 -9 -35 -4 -32 15 9 10 -13 -6 -26 -8 -7 -15 -22 -16
-34 0 -21 -1 -20 -11 2 -6 13 -16 21 -23 19 -6 -3 -19 1 -30 9 -10 8 -16 15
-12 15 64 12 76 39 42 91 -20 30 -25 47 -21 76 3 20 3 30 0 20 -3 -9 -17 -20
-32 -24 -20 -5 -23 -8 -9 -11 23 -6 22 -36 -2 -57 -28 -26 -44 -11 -36 33 l6
36 -20 -35 c-11 -19 -25 -47 -31 -62 -14 -33 -11 -32 -53 -12 -29 14 -33 20
-29 46 6 42 -15 28 -23 -15 -4 -18 -17 -45 -31 -62 -24 -30 -33 -20 -14 16 14
25 2 24 -28 -3 -22 -20 -24 -20 -19 -5 21 56 20 68 -9 98 l-28 29 36 0 c32 0
37 3 43 30 8 36 21 31 30 -10 5 -22 12 -30 29 -30 12 0 32 -7 44 -16 22 -15
24 -15 37 2 12 17 11 24 -9 59 -12 22 -28 39 -34 38 -11 -3 -44 48 -41 64 0 4
-5 9 -13 11 -9 2 -8 0 2 -7 10 -7 -1 -8 -40 -5 -47 5 -60 2 -89 -18 -53 -35
-75 -81 -75 -152 1 -83 41 -160 107 -201 15 -10 27 -26 27 -38 0 -11 7 -29 16
-39 16 -17 15 -17 -28 -2 -56 19 -120 80 -154 146 -68 133 -28 310 80 359 58
26 81 24 105 -10 18 -25 27 -29 59 -26 20 1 43 -2 51 -8 7 -7 21 -12 30 -12
18 0 49 -79 44 -110 -3 -18 -3 -18 6 1 5 12 14 25 20 28 6 4 -4 28 -25 62 -34
53 -35 56 -17 69 10 8 21 15 26 15 4 0 26 14 49 30 l41 30 24 -22 c18 -17 23
-32 23 -70z m-1735 47 c14 -13 25 -31 25 -39 0 -8 3 -23 6 -33 4 -14 4 -15 -4
-4 -8 11 -13 10 -28 -8 -19 -22 -44 -28 -44 -11 0 5 6 8 13 6 6 -1 9 -1 5 1
-5 3 -8 14 -9 26 0 16 -4 13 -13 -13 -8 -21 -20 -36 -32 -38 -18 -3 -18 -2 -1
8 9 6 17 17 17 25 0 9 -6 12 -17 9 -11 -4 -14 -2 -8 3 6 4 21 22 33 39 l21 31
-27 -5 c-30 -5 -62 -29 -62 -47 0 -17 -31 -118 -35 -113 -2 2 2 32 10 67 22
107 94 153 150 96z m143 -12 c12 -3 22 -9 22 -12 0 -4 14 -5 31 -3 l31 5 -16
-32 c-17 -31 -30 -43 -20 -17 3 7 -1 16 -9 19 -10 4 -13 0 -10 -12 6 -22 -27
-38 -39 -19 -6 10 -8 10 -8 1 0 -7 -7 -10 -16 -6 -8 3 -13 11 -10 18 2 7 -1
18 -7 24 -6 6 -11 20 -12 32 -1 16 2 19 19 14 12 -4 31 -9 44 -12z m1802 -9
c0 -2 -13 -4 -30 -4 -16 0 -30 4 -30 8 0 5 14 7 30 4 17 -2 30 -6 30 -8z
m-1197 -44 c31 0 43 -11 43 -37 0 -14 -4 -19 -11 -13 -5 4 -43 8 -82 7 -40 0
-76 3 -80 6 -3 4 11 22 33 41 38 33 39 34 57 15 10 -10 28 -19 40 -19z m1160
13 c-7 -2 -19 -2 -25 0 -7 3 -2 5 12 5 14 0 19 -2 13 -5z m-763 -23 c0 -9 -31
-30 -44 -30 -3 0 -6 9 -6 20 0 15 7 20 25 20 14 0 25 -4 25 -10z m-560 -10 c0
-5 -5 -10 -11 -10 -5 0 -7 5 -4 10 3 6 8 10 11 10 2 0 4 -4 4 -10z m370 -95
c10 6 12 -6 6 -61 -4 -38 -11 -73 -16 -78 -10 -10 -55 22 -68 50 -11 22 -2 44
31 82 14 15 23 19 28 11 4 -6 12 -8 19 -4z m-230 -51 c0 -8 -5 -14 -10 -14 -7
0 -7 -7 1 -21 9 -17 17 -20 41 -15 24 5 29 3 24 -9 -20 -50 -20 -48 2 -36 11
6 23 21 25 33 4 20 4 19 6 -4 1 -19 -10 -40 -34 -65 -19 -20 -32 -40 -29 -45
3 -4 -9 -8 -25 -8 -17 0 -31 -4 -31 -10 0 -5 7 -7 15 -4 8 4 15 2 15 -4 0 -8
-22 -22 -34 -22 -2 0 -18 34 -36 75 -31 70 -32 77 -16 93 9 10 16 27 16 38 0
24 10 39 30 46 18 6 40 -9 40 -28z m1386 18 c10 -9 30 -23 44 -29 l25 -12 -25
-1 c-23 -1 -24 -2 -5 -11 16 -7 14 -8 -10 -4 -16 4 -36 13 -42 22 -8 10 -13
12 -13 5 0 -17 -20 -15 -26 3 -6 15 11 45 25 45 4 0 16 -8 27 -18z m-989 -54
c-3 -8 -6 -5 -6 6 -1 11 2 17 5 13 3 -3 4 -12 1 -19z m893 -5 c-8 -3 -26 -17
-39 -31 -13 -15 -20 -20 -16 -12 15 29 38 50 54 49 14 0 14 -1 1 -6z m-1690
-28 c0 -8 -4 -15 -10 -15 -5 0 -7 7 -4 15 4 8 8 15 10 15 2 0 4 -7 4 -15z
m1280 -15 c-21 -14 -30 -12 -30 4 0 18 22 27 35 14 6 -6 5 -12 -5 -18z m-1140
-19 c0 -22 -16 -36 -24 -22 -8 12 3 41 15 41 5 0 9 -9 9 -19z m136 -28 c11
-27 21 -51 22 -55 5 -12 -36 -10 -43 2 -3 6 -17 10 -30 10 -16 0 -30 11 -45
38 -12 20 -19 34 -16 31 4 -4 23 0 44 7 20 7 40 13 43 14 4 0 15 -21 25 -47z
m1642 35 c-3 -7 -18 -18 -34 -23 -43 -15 -74 -38 -74 -55 -1 -21 -25 -50 -42
-50 -8 0 -18 -4 -23 -9 -6 -5 -23 4 -42 23 -30 30 -31 34 -17 54 13 18 21 21
60 15 37 -5 49 -2 67 15 12 11 38 25 57 30 48 14 52 14 48 0z m-1838 -11 c0
-8 -3 -17 -7 -20 -9 -9 -34 13 -27 24 8 14 34 11 34 -4z m1240 9 c0 -3 -4 -8
-10 -11 -5 -3 -10 -1 -10 4 0 6 5 11 10 11 6 0 10 -2 10 -4z m-1418 -27 c-3
-15 -33 -41 -39 -35 -2 2 -1 15 2 29 7 26 43 32 37 6z m405 -31 c-3 -7 -5 -2
-5 12 0 14 2 19 5 13 2 -7 2 -19 0 -25z m-923 -3 c-9 -14 -18 -25 -20 -25 -2
0 -4 11 -4 25 0 18 5 25 20 25 20 0 20 -1 4 -25z m1081 -6 c-9 -17 -19 -29
-22 -26 -5 5 25 57 33 57 3 0 -3 -14 -11 -31z m835 12 c-7 -14 -6 -21 3 -24 6
-2 -3 -6 -22 -9 -34 -5 -34 -5 -13 13 12 9 22 22 22 28 0 6 5 11 10 11 7 0 7
-6 0 -19z m-1310 -13 c0 -13 3 -33 6 -45 5 -20 2 -23 -19 -23 -36 0 -41 14
-21 55 19 40 34 46 34 13z m2026 1 c19 -22 19 -22 -3 -10 -24 12 -39 31 -25
31 5 0 17 -10 28 -21z m-909 -3 c-9 -10 -13 -33 -12 -73 l2 -58 -14 49 c-17
54 -7 96 22 96 14 0 14 -2 2 -14z m43 -11 c0 -29 24 -43 44 -26 11 10 17 8 25
-6 6 -10 11 -13 11 -8 1 6 5 1 9 -9 7 -18 8 -18 28 3 l20 21 1 -45 c0 -25 -2
-45 -4 -45 -2 0 -20 9 -40 19 -28 15 -39 17 -49 8 -7 -7 -10 -18 -7 -25 3 -10
-1 -13 -14 -10 -16 3 -18 11 -16 45 3 37 1 42 -25 51 -15 6 -22 11 -15 11 6 1
12 10 12 21 0 11 5 20 10 20 6 0 10 -11 10 -25z m-1813 -17 c-3 -7 -5 -2 -5
12 0 14 2 19 5 13 2 -7 2 -19 0 -25z m2238 -23 c0 -16 -9 -21 -42 -26 -24 -3
-43 -3 -43 0 1 21 46 52 70 48 8 -1 15 -11 15 -22z m-746 -130 c5 -22 13 -49
17 -59 5 -13 4 -17 -3 -13 -6 4 -14 22 -17 41 -4 19 -16 46 -27 60 -18 23 -20
34 -14 74 l8 47 13 -55 c7 -30 18 -73 23 -95z m-604 110 c19 -16 24 -25 15
-25 -13 0 -13 -1 0 -10 8 -5 11 -12 8 -15 -9 -9 -111 46 -116 63 -7 22 61 13
93 -13z m915 15 c0 -5 -4 -10 -9 -10 -6 0 -13 5 -16 10 -3 6 1 10 9 10 9 0 16
-4 16 -10z m503 -20 c-5 -19 -23 -39 -23 -25 0 9 20 45 24 45 2 0 2 -9 -1 -20z
m-1743 -9 c0 -24 -21 -61 -35 -61 -19 0 -19 5 2 41 17 28 33 38 33 20z m1490
0 c0 -6 -4 -13 -10 -16 -5 -3 -10 -15 -10 -25 0 -17 -17 -37 -24 -29 -2 2 -6
18 -9 36 -6 32 -7 32 46 42 4 0 7 -3 7 -8z m400 -6 c-7 -8 -17 -15 -23 -15 -6
0 -2 7 9 15 25 19 30 19 14 0z m-240 -5 c0 -12 -28 -25 -36 -17 -9 9 6 27 22
27 8 0 14 -5 14 -10z m-2110 -13 c0 -8 -9 -22 -19 -31 -26 -23 -39 -2 -15 25
20 22 34 25 34 6z m2007 -9 c-3 -8 -6 -5 -6 6 -1 11 2 17 5 13 3 -3 4 -12 1
-19z m290 6 c-3 -3 -12 -4 -19 -1 -8 3 -5 6 6 6 11 1 17 -2 13 -5z m-1004 -35
c9 -32 -55 -55 -67 -24 -8 21 3 43 22 48 25 5 39 -2 45 -24z m-325 -4 c33 -8
27 -29 -13 -48 -49 -23 -59 -22 -89 14 -20 23 -24 35 -16 44 10 12 22 11 118
-10z m1282 17 c0 -5 -11 -19 -25 -32 -28 -26 -30 -24 -15 14 9 24 40 37 40 18z
m-2375 -11 c-15 -13 -62 -26 -50 -13 6 5 19 12 30 15 11 3 22 5 25 6 2 0 0 -3
-5 -8z m2012 -17 c-3 -3 -12 -4 -19 -1 -8 3 -5 6 6 6 11 1 17 -2 13 -5z m268
-3 c3 -5 1 -12 -5 -16 -5 -3 -10 1 -10 9 0 18 6 21 15 7z m-621 -17 c18 -7 12
-24 -10 -24 -8 0 -14 7 -14 15 0 17 2 18 24 9z m570 0 c33 -13 14 -84 -22 -84
-12 0 -12 3 -2 15 7 8 16 12 21 9 5 -3 9 -1 9 4 0 11 -37 25 -57 23 -17 -2
-16 4 3 23 17 18 24 19 48 10z m-456 -54 c-14 -21 -37 -34 -47 -25 -6 7 38 44
52 45 4 0 2 -9 -5 -20z m-112 3 c-2 -2 -13 -6 -25 -8 -13 -2 -32 -7 -44 -10
-21 -6 -21 -5 -4 9 16 12 85 21 73 9z m-428 -48 c-3 -3 -9 2 -12 12 -6 14 -5
15 5 6 7 -7 10 -15 7 -18z m-1079 -16 c14 -22 14 -23 0 -12 -9 7 -20 9 -25 5
-5 -4 -6 -3 -2 2 4 5 2 16 -5 24 -10 12 -9 14 2 11 8 -3 21 -16 30 -30z m1036
21 c3 -5 1 -10 -4 -10 -6 0 -11 5 -11 10 0 6 2 10 4 10 3 0 8 -4 11 -10z m804
-7 c17 -10 31 -23 31 -30 0 -7 9 -17 20 -23 16 -9 20 -8 20 5 0 9 5 13 10 10
21 -13 8 -42 -36 -80 -80 -70 -94 -87 -105 -129 -20 -72 -20 -73 -29 -51 -5
11 -9 15 -9 8 -1 -17 -40 -3 -52 20 -17 31 -29 3 -29 -69 0 -42 5 -65 15 -74
8 -7 13 -16 10 -20 -2 -4 42 3 98 16 71 15 107 19 120 12 22 -12 39 -55 32
-79 -9 -27 -69 -26 -88 1 -8 11 -16 17 -20 14 -3 -3 -3 5 0 18 5 22 5 22 -9 4
-11 -14 -17 -16 -22 -7 -6 9 -13 8 -27 -5 -10 -9 -36 -18 -58 -19 -42 -3 -92
-29 -135 -71 -22 -23 -26 -24 -26 -9 0 10 19 36 42 58 49 47 13 31 -41 -19
l-38 -33 -10 34 c-10 32 -9 35 8 35 34 0 35 16 2 231 -4 26 0 40 13 54 14 14
19 33 19 77 0 51 3 62 25 78 32 25 71 25 121 -1 45 -23 72 -20 62 7 -5 12 -3
15 6 9 10 -6 11 -3 2 13 -9 17 -8 21 7 25 31 8 40 7 71 -10z m-489 0 c0 -20
-22 -83 -28 -83 -4 0 -13 4 -20 9 -11 7 -9 16 10 45 21 33 38 46 38 29z m390
-14 c0 -17 -34 -28 -54 -17 -19 10 -18 11 4 23 24 13 50 10 50 -6z m-690 -9
c0 -5 -19 -10 -42 -10 -32 0 -39 3 -28 10 20 13 70 13 70 0z m1089 -37 c1 -7
-5 -13 -13 -13 -13 0 -16 34 -6 60 2 7 18 -32 19 -47z m720 33 c9 -11 1 -14
-41 -20 -103 -12 -117 -3 -31 20 62 16 59 16 72 0z m-1784 -6 c3 -5 1 -10 -4
-10 -6 0 -11 5 -11 10 0 6 2 10 4 10 3 0 8 -4 11 -10z m1015 0 c0 -5 -5 -10
-11 -10 -5 0 -7 5 -4 10 3 6 8 10 11 10 2 0 4 -4 4 -10z m-877 -19 c30 -16 35
-36 12 -45 -18 -7 -55 27 -55 50 0 9 3 14 8 12 4 -2 19 -10 35 -17z m-1528 -9
c-3 -3 -11 0 -18 7 -9 10 -8 11 6 5 10 -3 15 -9 12 -12z m1210 -14 c14 -6 25
-15 25 -20 0 -5 -13 -2 -30 7 -45 23 -41 34 5 13z m1792 -110 c10 -11 30 -26
45 -34 26 -14 27 -13 22 14 -3 15 -16 49 -30 76 -13 27 -22 51 -20 53 5 6 115
-95 165 -150 40 -45 36 -60 -6 -20 -16 15 -39 36 -50 45 -21 16 -22 16 -20 -2
1 -10 6 -16 12 -12 5 3 4 -1 -2 -10 -7 -8 -10 -17 -7 -21 3 -3 -4 -8 -16 -12
-48 -15 -134 72 -145 150 l-6 40 20 -49 c11 -26 28 -57 38 -68z m-537 86 c0
-8 -5 -12 -10 -9 -6 4 -8 11 -5 16 9 14 15 11 15 -7z m468 -101 c7 -13 10 -23
8 -23 -14 0 -36 63 -35 97 l2 38 6 -45 c4 -25 12 -55 19 -67z m-653 87 c3 -5
-3 -10 -14 -10 -12 0 -21 5 -21 10 0 6 6 10 14 10 8 0 18 -4 21 -10z m-1573
-18 c-7 -2 -9 -9 -6 -14 4 -6 2 -8 -3 -5 -6 4 -16 1 -22 -7 -7 -8 -20 -13 -29
-11 -9 2 -25 4 -35 4 -10 1 -16 5 -13 10 4 5 0 12 -6 14 -7 3 1 6 17 7 17 1
39 5 50 9 11 4 29 6 40 3 11 -3 14 -7 7 -10z m1718 -1 c0 -11 -9 -23 -21 -26
-31 -10 -35 2 -8 24 30 25 29 25 29 2z m-1970 -1 c0 -5 -5 -10 -11 -10 -12 0
-7 -67 7 -103 12 -32 -35 -18 -78 23 l-42 40 29 0 c37 0 50 9 59 38 7 22 36
32 36 12z m-67 -20 c18 0 19 -2 7 -10 -18 -12 -70 -13 -70 -2 0 15 13 23 28
17 7 -3 23 -5 35 -5z m1835 -10 c-7 -11 -16 -20 -20 -20 -4 0 -26 -19 -48 -42
-39 -40 -40 -41 -26 -12 15 32 79 94 96 94 6 0 5 -9 -2 -20z m277 -55 c39 -86
77 -196 70 -203 -4 -5 -12 12 -85 180 -33 76 -38 98 -23 98 2 0 20 -34 38 -75z
m-1479 30 c19 -17 25 -31 21 -46 -3 -12 1 -38 9 -57 19 -46 9 -54 -22 -17 -38
47 -55 82 -52 115 3 36 9 37 44 5z m-402 -9 c27 -5 61 -20 73 -32 19 -19 16
-45 -7 -51 -11 -3 -20 -9 -20 -12 0 -4 -6 -8 -12 -9 -7 -1 -27 -4 -44 -8 -47
-9 -63 21 -51 96 3 14 5 26 6 28 0 2 11 0 22 -3 12 -4 27 -8 33 -9z m486 -46
c13 -31 10 -80 -4 -81 -10 0 -27 48 -39 111 -7 32 -7 33 12 16 11 -10 24 -30
31 -46z m166 -26 c-5 -23 -13 -34 -32 -38 -29 -8 -40 -3 -55 26 -10 19 -9 20
9 16 23 -6 40 9 62 57 l14 30 4 -29 c2 -16 1 -44 -2 -62z m31 24 c-2 -13 -4
-5 -4 17 -1 22 1 32 4 23 2 -10 2 -28 0 -40z m-532 -12 c-3 -12 -7 -25 -9 -31
-9 -31 -19 -43 -34 -40 -9 2 -26 4 -37 4 -16 1 -13 6 15 23 19 12 37 23 40 25
2 2 -2 13 -9 25 -11 17 -11 22 0 29 20 12 41 -11 34 -35z m1505 24 c0 -5 -5
-10 -11 -10 -5 0 -7 5 -4 10 3 6 8 10 11 10 2 0 4 -4 4 -10z m-89 -48 c-6 -11
-17 -22 -26 -26 -13 -5 -14 -2 -4 17 12 23 31 39 37 32 2 -2 -1 -12 -7 -23z
m85 -54 c-8 -5 -19 -9 -23 -10 -5 -1 -13 -8 -19 -16 -8 -11 -13 -12 -18 -4 -8
14 53 54 67 45 5 -3 2 -10 -7 -15z m-1550 -21 c3 -20 -16 -32 -68 -41 -21 -4
-57 -16 -80 -26 -47 -21 -85 -25 -107 -11 -12 8 -12 12 -2 25 7 8 19 12 27 9
11 -4 12 -9 3 -19 -6 -8 -10 -14 -7 -14 14 0 107 38 103 42 -9 8 89 58 109 55
11 -1 20 -10 22 -20z m55 -33 c-7 -31 -9 -34 -10 -12 -1 27 9 62 15 55 3 -2 0
-22 -5 -43z m-352 -27 c8 -11 4 -13 -23 -13 -26 1 -32 4 -24 14 14 16 33 15
47 -1z m-84 -7 c-3 -5 -11 -10 -16 -10 -6 0 -7 5 -4 10 3 6 11 10 16 10 6 0 7
-4 4 -10z m420 -29 c-3 -6 -14 -11 -23 -11 -13 0 -13 2 4 14 21 15 30 14 19
-3z m-45 -11 c0 -15 -38 -32 -45 -20 -5 8 17 23 43 29 1 1 2 -3 2 -9z m104
-170 c-7 -42 -22 -53 -31 -21 -3 12 -11 17 -22 14 -10 -2 -25 2 -33 11 -9 8
-19 12 -23 8 -5 -4 -5 -2 -2 4 4 8 20 9 46 4 25 -4 44 -3 50 3 19 19 12 26
-23 23 -32 -2 -34 -1 -24 18 25 48 31 49 50 12 13 -26 17 -47 12 -76z m-168
77 c-74 -57 -73 -54 -31 -49 26 3 36 1 31 -7 -4 -6 -15 -11 -24 -12 -13 0 -12
-3 6 -11 12 -6 22 -14 22 -19 0 -11 -38 1 -51 17 -16 19 -39 18 -93 -6 -25
-10 -46 -18 -46 -15 0 5 198 122 210 123 3 1 -8 -9 -24 -21z m1421 -57 c-35
-31 -57 -38 -57 -20 0 12 59 50 78 50 7 0 -3 -13 -21 -30z m-1837 0 c0 -11 -4
-20 -9 -20 -5 0 -7 9 -4 20 3 11 7 20 9 20 2 0 4 -9 4 -20z m2487 -12 c-3 -8
-6 -5 -6 6 -1 11 2 17 5 13 3 -3 4 -12 1 -19z m-1861 -35 c-8 -15 -15 -25 -16
-21 0 12 23 58 27 54 3 -2 -2 -17 -11 -33z m-106 -19 l25 -14 -30 6 c-41 9
-75 22 -75 29 0 8 51 -6 80 -21z m156 -219 c3 -16 1 -41 -4 -55 l-10 -25 -6
25 c-12 56 -36 183 -36 194 1 17 49 -105 56 -139z m317 131 c3 -8 9 -42 13
-76 4 -33 9 -58 13 -55 3 4 11 37 16 73 l10 67 43 3 42 3 1 -133 c1 -73 3
-126 4 -118 2 8 11 68 20 133 l17 117 43 0 42 0 17 -117 c10 -65 19 -122 21
-128 2 -5 4 47 4 118 l1 127 55 0 c42 0 60 -5 75 -20 20 -20 20 -20 20 0 0 15
7 20 29 20 34 0 37 -7 47 -99 3 -39 10 -71 14 -71 4 0 11 32 14 71 11 104 6
99 102 99 l84 0 0 -30 c0 -25 -4 -30 -25 -30 -22 0 -25 -4 -25 -40 0 -36 3
-40 25 -40 21 0 25 -5 25 -30 0 -25 -4 -30 -25 -30 -22 0 -25 -4 -25 -40 0
-36 3 -40 25 -40 21 0 25 -5 25 -30 l0 -30 -61 0 -62 0 5 143 c5 156 0 151
-27 -26 l-18 -117 -37 0 -38 0 -12 73 c-12 74 -28 133 -29 108 -1 -8 -8 -22
-16 -31 -13 -14 -12 -23 5 -80 11 -36 20 -66 20 -68 0 -2 -14 -2 -31 0 -29 3
-33 8 -49 58 l-18 55 -1 -57 -1 -58 -65 0 c-63 0 -65 1 -65 25 0 20 -5 25 -25
25 -20 0 -25 -5 -25 -25 0 -24 -2 -25 -66 -25 l-67 0 5 73 c5 75 -5 59 -17
-25 -5 -38 -10 -48 -25 -48 -15 0 -20 10 -26 48 -11 79 -22 91 -16 20 l5 -68
-37 0 -36 0 0 170 0 170 39 0 c24 0 41 -5 44 -14z m827 -126 l0 -140 25 0 c21
0 25 -5 25 -30 l0 -30 -60 0 -60 0 0 170 0 170 35 0 35 0 0 -140z"/>
<path d="M2598 2403 c7 -3 16 -2 19 1 4 3 -2 6 -13 5 -11 0 -14 -3 -6 -6z"/>
<path d="M2598 2373 c7 -3 16 -2 19 1 4 3 -2 6 -13 5 -11 0 -14 -3 -6 -6z"/>
<path d="M2410 1589 c0 -6 -4 -7 -10 -4 -5 3 -10 1 -10 -4 0 -6 3 -11 8 -12 4
0 17 -2 30 -3 27 -3 38 9 20 21 -19 11 -38 12 -38 2z"/>
<path d="M2286 1568 c3 -5 10 -6 15 -3 13 9 11 12 -6 12 -8 0 -12 -4 -9 -9z"/>
<path d="M1840 1163 c0 -53 1 -56 17 -41 16 16 21 68 8 88 -15 24 -25 6 -25
-47z"/>
<path d="M1680 1148 c0 -20 -3 -50 -6 -67 -5 -25 -3 -31 10 -31 15 0 16 8 10
63 -8 71 -14 87 -14 35z"/>
<path d="M1298 3143 c7 -3 16 -2 19 1 4 3 -2 6 -13 5 -11 0 -14 -3 -6 -6z"/>
<path d="M1393 3113 c15 -10 30 -26 33 -35 3 -10 12 -18 20 -18 12 0 12 4 -3
24 -10 14 -25 27 -33 30 -8 3 -22 9 -30 12 -8 3 -3 -3 13 -13z"/>
<path d="M1520 3063 c13 -18 25 -33 27 -33 8 0 -17 38 -33 51 -11 9 -9 2 6
-18z"/>
<path d="M2450 3061 c0 -10 30 -24 37 -17 3 2 -5 9 -16 16 -12 6 -21 7 -21 1z"/>
<path d="M2426 3017 c3 -10 9 -15 12 -12 3 3 0 11 -7 18 -10 9 -11 8 -5 -6z"/>
<path d="M2200 2935 c7 -9 15 -13 17 -11 7 7 -7 26 -19 26 -6 0 -6 -6 2 -15z"/>
<path d="M2336 2935 c4 -8 8 -15 10 -15 2 0 4 7 4 15 0 8 -4 15 -10 15 -5 0
-7 -7 -4 -15z"/>
<path d="M1410 2890 c-12 -8 -11 -10 8 -10 17 0 22 -6 22 -27 1 -24 2 -25 11
-11 7 12 6 24 -1 38 -12 22 -18 24 -40 10z"/>
<path d="M1029 2853 c-13 -15 -12 -15 9 -4 23 12 28 21 13 21 -5 0 -15 -7 -22
-17z"/>
<path d="M1165 2819 c-11 -17 -2 -18 19 -3 17 12 17 14 4 14 -9 0 -20 -5 -23
-11z"/>
<path d="M1325 2681 c-6 -5 -26 -14 -45 -19 -19 -6 -27 -11 -17 -11 20 -1 87
25 87 33 0 9 -15 7 -25 -3z"/>
<path d="M1140 2665 c19 -7 46 -14 60 -14 14 0 4 6 -25 14 -63 18 -81 18 -35
0z"/>
<path d="M1150 2600 c0 -5 7 -10 16 -10 8 0 12 5 9 10 -3 6 -10 10 -16 10 -5
0 -9 -4 -9 -10z"/>
<path d="M715 2570 c-3 -5 -2 -10 4 -10 5 0 13 5 16 10 3 6 2 10 -4 10 -5 0
-13 -4 -16 -10z"/>
<path d="M2985 2466 c10 -14 19 -26 22 -26 7 0 -17 39 -28 46 -6 3 -3 -5 6
-20z"/>
<path d="M3070 2443 c-14 -3 -29 -8 -34 -13 -13 -13 31 -22 53 -11 11 6 22 11
24 11 7 0 2 -28 -6 -36 -4 -4 -7 -12 -7 -18 0 -6 7 -2 15 8 12 16 17 17 30 6
9 -8 15 -8 15 -2 0 6 -5 14 -10 17 -6 4 -8 10 -5 15 6 9 -27 31 -42 29 -4 -1
-19 -4 -33 -6z"/>
<path d="M3030 2399 c0 -5 5 -7 10 -4 6 3 10 8 10 11 0 2 -4 4 -10 4 -5 0 -10
-5 -10 -11z"/>
<path d="M647 2189 c7 -7 15 -10 18 -7 3 3 -2 9 -12 12 -14 6 -15 5 -6 -5z"/>
<path d="M196 2170 c-10 -10 -17 -23 -15 -28 2 -5 14 4 27 20 26 31 17 37 -12
8z"/>
<path d="M771 2094 c0 -11 3 -14 6 -6 3 7 2 16 -1 19 -3 4 -6 -2 -5 -13z"/>
<path d="M815 2081 c-29 -7 -29 -7 -9 -19 12 -6 37 -9 59 -5 35 6 36 7 20 20
-20 14 -24 14 -70 4z"/>
<path d="M765 1990 c-3 -5 -1 -10 4 -10 6 0 11 5 11 10 0 6 -2 10 -4 10 -3 0
-8 -4 -11 -10z"/>
<path d="M613 1933 c9 -2 17 -9 17 -14 0 -6 5 -7 10 -4 19 12 10 25 -17 24
-17 -1 -21 -3 -10 -6z"/>
<path d="M495 1840 c-16 -11 -25 -20 -19 -20 11 0 64 39 54 40 -3 0 -18 -9
-35 -20z"/>
<path d="M493 1818 c-13 -6 -23 -14 -23 -19 0 -10 43 2 58 18 17 17 -2 17 -35
1z"/>
<path d="M151 1764 c0 -11 3 -14 6 -6 3 7 2 16 -1 19 -3 4 -6 -2 -5 -13z"/>
<path d="M81 1564 c0 -11 3 -14 6 -6 3 7 2 16 -1 19 -3 4 -6 -2 -5 -13z"/>
<path d="M230 1240 c-8 -5 -10 -10 -5 -10 6 0 17 5 25 10 8 5 11 10 5 10 -5 0
-17 -5 -25 -10z"/>
<path d="M3081 1175 c0 -5 6 -19 14 -29 8 -11 15 -15 15 -10 0 6 -7 19 -15 30
-8 10 -14 15 -14 9z"/>
<path d="M1020 911 c-42 -6 -46 -10 -80 -67 -19 -33 -106 -178 -192 -323 -87
-144 -158 -264 -158 -267 0 -3 4 -3 8 0 17 10 160 36 173 31 10 -3 33 31 74
107 33 62 59 118 59 125 -1 7 3 10 9 6 6 -4 8 0 4 11 -5 11 -3 15 5 10 8 -5 9
-2 5 10 -4 9 -3 15 2 12 5 -3 15 2 22 11 12 15 12 16 -6 9 -13 -5 -16 -4 -10
2 6 6 30 13 54 17 l44 7 -78 -147 c-42 -80 -75 -148 -73 -151 3 -2 39 3 81 11
42 8 83 12 90 9 16 -6 81 132 70 149 -3 5 -1 7 4 4 11 -7 28 22 18 31 -3 3 -5
-1 -5 -8 0 -7 -3 -11 -6 -8 -8 8 107 269 116 263 11 -7 33 52 24 66 -4 7 -3
10 3 6 12 -8 26 20 17 34 -3 5 0 9 5 9 6 0 11 9 11 20 0 18 -7 20 -64 20 l-63
0 -48 -102 c-26 -57 -49 -105 -51 -107 -5 -6 -94 -19 -94 -14 0 8 52 93 56 93
2 0 -5 -18 -16 -40 -11 -22 -18 -40 -15 -40 11 0 55 101 49 112 -4 6 -3 8 3 5
10 -6 43 53 43 78 0 16 -12 16 -90 6z"/>
<path d="M2444 906 c-23 -17 -14 -60 34 -156 l37 -75 107 -36 c59 -20 123 -48
142 -63 41 -31 92 -101 102 -139 5 -23 3 -27 -14 -27 -41 0 -69 22 -94 74
l-26 52 -83 12 c-45 6 -84 10 -86 8 -2 -1 15 -41 36 -88 38 -82 43 -87 93
-111 29 -15 82 -31 118 -37 36 -6 111 -20 168 -32 149 -30 152 -21 49 137 -34
52 -75 116 -92 142 -26 41 -40 52 -100 76 -186 75 -197 80 -216 111 -14 24
-16 33 -6 45 10 12 9 13 -2 6 -10 -5 -12 -4 -7 3 12 20 37 13 66 -18 22 -23
41 -31 95 -40 37 -6 69 -9 71 -8 1 2 -14 30 -35 63 -54 85 -88 101 -228 108
-81 4 -116 2 -129 -7z"/>
<path d="M1615 861 c-44 -5 -50 -9 -53 -31 -3 -24 -77 -338 -87 -370 -4 -12 8
-15 70 -15 l74 0 7 50 c4 28 6 65 5 84 -1 20 5 42 16 54 10 11 12 17 6 13 -7
-4 -13 -2 -13 3 0 17 47 13 64 -5 9 -8 14 -20 10 -25 -3 -6 -9 -43 -13 -84
l-7 -75 72 0 72 0 6 54 c9 69 0 106 -31 132 -25 21 -25 22 -5 28 26 9 31 24
33 104 3 74 -4 82 -72 82 -26 0 -59 2 -75 4 -16 2 -51 1 -79 -3z m99 -57 c19
-7 21 -55 4 -72 -7 -7 -25 -12 -41 -12 -28 0 -29 2 -23 31 3 17 6 38 6 45 0
15 27 18 54 8z"/>
<path d="M2190 860 c0 -11 100 -402 104 -409 3 -5 56 -14 118 -21 62 -7 123
-16 135 -21 28 -10 28 -10 2 51 l-21 49 -62 6 -63 7 -15 49 c-10 33 -11 49 -4
50 6 0 2 5 -9 10 -14 6 -4 8 38 6 61 -4 63 -2 46 37 -10 21 -21 26 -70 32 -53
6 -59 9 -68 37 -17 48 -15 50 44 45 60 -5 63 -2 40 42 -15 28 -16 29 -115 32
-55 2 -100 1 -100 -2z"/>
<path d="M1296 777 c-16 -45 -55 -146 -86 -225 l-58 -143 27 5 c21 5 131 18
236 29 21 2 32 25 34 65 1 23 0 23 -66 17 -45 -4 -63 -3 -54 3 7 5 11 14 7 20
-3 6 -3 12 1 14 5 1 16 17 25 35 12 23 13 33 5 36 -7 2 14 7 45 11 32 4 62 4
68 1 7 -4 9 3 5 22 -5 21 -4 24 4 13 13 -18 14 -1 2 19 -7 10 -22 12 -61 8
-51 -6 -52 -6 -46 18 17 69 22 73 80 77 32 1 57 -1 59 -7 2 -5 3 7 3 27 l-1
38 -100 0 -100 0 -29 -83z"/>
<path d="M1902 844 c-23 -16 -23 -19 -20 -170 3 -149 4 -154 29 -179 44 -45
183 -55 274 -20 l20 8 -20 -18 c-19 -17 -19 -17 5 -3 41 25 43 61 9 188 -46
173 -48 179 -79 195 -41 21 -188 20 -218 -1z m132 -40 c9 -3 20 -22 25 -43 14
-53 32 -221 26 -232 -11 -16 -53 -10 -59 9 -3 9 -10 61 -17 115 -10 77 -10
103 -1 118 8 13 9 19 1 19 -5 0 -7 5 -4 10 7 12 8 12 29 4z"/>
<path d="M1236 735 c-9 -26 -7 -32 5 -12 6 10 9 21 6 23 -2 3 -7 -2 -11 -11z"/>
<path d="M1206 665 c-9 -26 -7 -32 5 -12 6 10 9 21 6 23 -2 3 -7 -2 -11 -11z"/>
<path d="M1830 670 c-9 -6 -10 -10 -3 -10 6 0 15 5 18 10 8 12 4 12 -15 0z"/>
<path d="M1172 585 c-17 -37 -14 -45 4 -12 9 16 14 31 11 33 -2 2 -9 -7 -15
-21z"/>
</g>
</svg>
